<svg width="433" height="500" viewBox="0 0 433 500" fill="none" xmlns="http://www.w3.org/2000/svg">
<path d="M162.511 20.0916C132.554 37.5638 108.207 53.57 28.695 56.5624C2.00384 57.5666 0 82.6704 0 82.6704L0.661267 322.763C0.661267 322.763 2.00384 380.904 52.3203 409.402C79.8731 424.986 132.474 460.413 159.245 477.282C185.616 493.871 200.965 500.94 216.375 499.876V0.00853173C201.546 -0.272631 185.916 6.39494 162.511 20.0916Z" fill="#2B4661"/>
<path d="M243.431 110.785H161.273V375.882H243.431V110.785Z" fill="#152A43"/>
<path d="M270.04 20.0916C300.097 37.5839 324.424 53.5901 403.856 56.5825C430.567 57.5867 432.551 82.6905 432.551 82.6905L431.87 322.783C431.87 322.783 430.567 380.924 380.211 409.422C352.658 425.006 300.057 460.433 273.286 477.302C246.935 493.891 231.566 500.96 216.156 499.896V0.00853173C230.985 -0.272631 246.635 6.39494 270.04 20.0916Z" fill="#152A43"/>
<path opacity="0.1" fill-rule="evenodd" clip-rule="evenodd" d="M201.323 106.771L217.354 98.1358C217.354 98.1358 229.517 95.8463 237.392 100.747C245.267 105.647 341.592 152.963 341.592 152.963C341.592 152.963 355.759 156.839 359.627 181.079C363.494 205.319 359.627 354.315 359.627 354.315C359.627 354.315 355.719 367.51 343.596 373.876C331.473 380.243 239.396 424.084 239.396 424.084C239.396 424.084 223.907 430.109 211.342 426.092C198.778 422.076 179.281 399.984 179.281 399.984L175.273 391.951L197.316 383.918L275.465 345.76C278.455 343.346 280.895 340.32 282.623 336.884C284.351 333.448 285.327 329.682 285.485 325.838C286.146 312.563 285.485 201.162 285.485 201.162C285.485 201.162 283.02 183.529 271.458 177.062C255.928 168.386 171.266 132.879 171.266 132.879L201.323 106.771Z" fill="black"/>
<path opacity="0.1" fill-rule="evenodd" clip-rule="evenodd" d="M107.883 354.313V169.027C107.883 169.027 112.131 146.936 129.184 140.911C146.236 134.886 199.318 106.77 199.318 106.77C195.428 112.639 193.269 119.488 193.086 126.531C193.086 137.677 193.307 403.939 193.307 403.939C193.307 403.939 195.31 413.297 201.322 417.997L127.18 381.847C127.18 381.847 107.883 373.995 107.883 354.313Z" fill="black"/>
<path fill-rule="evenodd" clip-rule="evenodd" d="M189.3 86.686C194.465 83.4872 199.819 80.6034 205.331 78.0503C208.648 76.9252 212.178 76.5755 215.652 77.028C219.125 77.4805 222.449 78.7232 225.369 80.6611C233.244 85.5413 329.569 132.877 329.569 132.877C329.569 132.877 347.603 140.91 347.603 160.993C347.603 185.535 347.603 334.23 347.603 334.23C347.603 334.23 347.603 345.757 331.572 353.791C319.349 359.916 227.373 403.998 227.373 403.998C227.373 403.998 209.338 412.032 199.319 406.007C187.997 399.219 167.258 379.899 167.258 379.899L163.25 373.874L185.292 363.832L263.442 325.674C269.453 321.658 273.14 313.625 273.461 305.752C274.122 292.477 273.461 181.076 273.461 181.076C273.461 181.076 270.996 163.443 259.434 156.977C243.904 148.301 159.242 112.794 159.242 112.794L189.3 86.686Z" fill="url(#paint0_linear_4650_4175)"/>
<path fill-rule="evenodd" clip-rule="evenodd" d="M97.8699 335.818V149.347C97.8699 149.347 97.1485 131.151 119.171 121.05C135.662 113.478 189.305 86.6875 189.305 86.6875C185.403 92.6178 183.243 99.5283 183.073 106.63C183.073 117.856 183.294 384.921 183.294 384.921C183.294 384.921 183.294 391.95 190.728 399.983L117.167 363.512C117.167 363.512 97.8699 355.64 97.8699 335.818Z" fill="url(#paint1_linear_4650_4175)"/>
<path d="M330.633 137.898C335.629 139.962 339.835 143.575 342.633 148.208C345.432 152.841 346.676 158.251 346.182 163.645C346.182 167.441 346.182 178.466 346.182 182.443C346.182 213.652 346.182 301.134 346.182 332.443C346.182 342.726 334.841 349.112 326.625 352.787C330.693 350.455 334.439 347.599 337.766 344.292C340.672 341.3 343.337 337.142 343.157 332.945C343.157 332.945 343.157 232.65 343.157 232.53V157.54C342.897 153.471 341.612 149.536 339.422 146.101C337.231 142.666 334.207 139.843 330.633 137.898Z" fill="#45F3FF"/>
<path opacity="0.2" fill-rule="evenodd" clip-rule="evenodd" d="M183.432 363.695L192.55 359.859V379.079C191.956 389.106 194.962 399.016 201.026 407.014C198.151 405.578 195.459 403.797 193.011 401.712C182.992 393.679 183.312 385.927 183.432 382.935V363.695Z" fill="#030A60"/>
<path opacity="0.2" fill-rule="evenodd" clip-rule="evenodd" d="M205.353 78.6523C205.353 78.6523 189.322 80.6606 192.809 126.39L182.93 122.915L183.33 105.483C183.498 98.7699 185.584 92.2457 189.342 86.6856C189.342 86.6856 201.345 78.6523 205.353 78.6523Z" fill="#030A60"/>
<defs>
<linearGradient id="paint0_linear_4650_4175" x1="159.242" y1="242.531" x2="347.603" y2="242.531" gradientUnits="userSpaceOnUse">
<stop stop-color="#119BB9"/>
<stop offset="0.01" stop-color="#119BB9"/>
<stop offset="1" stop-color="#11DBF9"/>
</linearGradient>
<linearGradient id="paint1_linear_4650_4175" x1="128.068" y1="342.485" x2="187.189" y2="92.1285" gradientUnits="userSpaceOnUse">
<stop offset="0.34" stop-color="#D7DAE6"/>
<stop offset="1" stop-color="white"/>
</linearGradient>
</defs>
</svg>
