<svg width="184" height="184" viewBox="0 0 184 184" fill="none" xmlns="http://www.w3.org/2000/svg">
<g clip-path="url(#clip0_566_52)">
<path d="M40.6658 21.5685C53.7966 12.065 68.4188 7.26005 84.7465 5.10994L84.095 0.16275L84.7465 5.10994C94.7142 3.79732 106.192 5.18686 116.136 8.04062L117.516 3.2346L116.136 8.04062C130.478 12.1563 143.661 19.6819 154.169 30.1905L157.704 26.655L154.169 30.1905C184.588 60.609 187.899 111.366 161.515 145.356C155.321 153.335 147.785 160.389 139.308 165.672C128.205 172.592 115.869 176.961 102.883 178.577C92.4809 179.871 81.5207 179.104 71.2329 176.661C62.4212 174.57 53.8293 170.941 46.1381 166.124L43.4843 170.362L46.138 166.124C5.7053 140.804 -6.74296 85.824 18.465 45.4121C24.2247 36.1785 31.8673 27.9366 40.6658 21.5685Z" stroke="#464646" stroke-width="10"/>
<path d="M67.5624 56.2217C52.9869 57.9574 55.5471 79.6813 70.0781 77.9182C83.6387 76.2726 81.1285 54.6063 67.5624 56.2217ZM116.078 56.2217C101.465 58.3301 104.78 80.2951 119.312 77.8672C132.635 75.6419 129.501 54.285 116.078 56.2217Z" fill="#464646"/>
<path d="M90.2031 102.933C77.8486 104.561 66.6745 109.187 58.8171 119.312C56.0003 122.942 48.6371 134.658 57.8594 135.777C63.8951 136.509 66.9476 126.164 70.7973 122.579C78.2241 115.663 89.1847 112.329 99.1875 114.088C107.035 115.468 114.009 119.359 119.205 125.422C122.111 128.812 124.116 136.669 129.734 135.724C139.912 134.011 129.681 120.252 126.468 116.797C117.596 107.256 103.375 101.199 90.2031 102.933Z" fill="#464646"/>
</g>
<defs>
<clipPath id="clip0_566_52">
<rect width="184" height="184" fill="white"/>
</clipPath>
</defs>
</svg>
